<?xml version="1.0" standalone="no"?>
<!DOCTYPE svg PUBLIC "-//W3C//DTD SVG 20010904//EN"
 "http://www.w3.org/TR/2001/REC-SVG-20010904/DTD/svg10.dtd">
<svg version="1.0" xmlns="http://www.w3.org/2000/svg"
 width="512.000000pt" height="512.000000pt" viewBox="0 0 512.000000 512.000000"
 preserveAspectRatio="xMidYMid meet">
<metadata>
Created by potrace 1.11, written by Peter Selinger 2001-2013
</metadata>
<g transform="translate(0.000000,512.000000) scale(0.100000,-0.100000)"
fill="#000000" stroke="none">
<path d="M323 5095 c-153 -42 -258 -147 -298 -300 -13 -52 -15 -312 -15 -2232
0 -1570 3 -2187 11 -2225 33 -156 162 -284 317 -317 75 -16 4369 -16 4444 0
155 33 284 161 317 317 8 38 11 655 11 2225 0 1920 -2 2180 -15 2232 -41 155
-146 259 -302 300 -84 22 -4389 21 -4470 0z m3142 -1325 c369 -287 674 -526
678 -530 8 -7 -197 -280 -209 -280 -3 0 -66 48 -141 106 -74 58 -139 102 -143
97 -101 -103 -580 -652 -580 -663 1 -8 16 -136 34 -285 19 -148 33 -271 32
-272 -2 -2 -115 85 -252 192 -137 107 -252 194 -256 192 -6 -2 -342 -324 -663
-636 -180 -175 -178 -174 -228 -180 -52 -7 -51 -25 1 -29 32 -2 48 4 86 32
l46 36 0 -105 0 -105 -77 -88 c-43 -48 -141 -159 -218 -245 -77 -87 -141 -162
-143 -166 -4 -11 116 -48 203 -62 83 -14 245 -6 330 16 89 24 252 108 322 168
59 49 63 56 78 119 26 116 35 199 34 348 0 124 -15 270 -30 285 -3 2 -32 8
-66 14 -58 9 -155 50 -167 70 -3 5 80 93 186 195 l193 186 18 -22 c66 -85 129
-232 157 -370 72 -353 -65 -713 -361 -943 -370 -288 -911 -250 -1248 86 -227
227 -324 548 -261 859 78 384 366 672 750 750 173 35 369 18 530 -45 l65 -26
15 22 c8 12 29 47 46 78 l32 56 -249 194 c-137 107 -246 197 -242 201 4 4 132
21 284 40 l276 33 244 359 c134 198 245 363 247 367 1 4 -58 54 -133 112 -74
57 -133 109 -131 116 3 6 51 70 107 142 90 116 104 130 118 117 9 -7 318 -248
686 -536z"/>
<path d="M2756 3355 c-135 -173 -246 -318 -246 -323 0 -13 171 -143 180 -137
9 6 500 632 500 638 0 7 -170 137 -179 137 -5 0 -120 -142 -255 -315z"/>
<path d="M1650 2433 c-14 -2 -49 -8 -77 -14 l-53 -10 0 -82 0 -81 -143 -143
-143 -143 -117 0 -118 0 -20 -47 c-40 -90 -62 -227 -56 -343 7 -135 27 -211
88 -336 39 -80 66 -120 130 -188 44 -47 94 -95 110 -107 l29 -20 0 175 0 176
-102 51 c-57 28 -111 58 -120 67 -16 13 -18 37 -18 217 0 183 2 203 18 218 15
14 42 17 160 17 l141 0 86 -69 c75 -60 230 -150 239 -140 9 10 307 531 331
579 15 30 41 74 56 97 16 23 29 46 29 51 0 14 -104 50 -193 67 -73 14 -198 18
-257 8z"/>
</g>
</svg>
